PathFileType	4	(X/Y/Z)	1H_nor_fast_left.trc
DataRate	CameraRate	NumFrames	NumMarkers	Units	OrigDataRate	OrigDataStartFrame	OrigNumFrames
250.00	250.00	8	18	mm	250.00	5717	7622
Frame#	Time	c7	r_should	r_elb_m	clavicle	r_upa	r_wri_m	l_upa	l_elb_l	l_low	l_wri_l	l_met	l_elb_m	r_elb_l	l_should	r_low	r_wri_l	r_met	l_wri_m
	X1	Y1	Z1	X2	Y2	Z2	X3	Y3	Z3	X4	Y4	Z4	X5	Y5	Z5	X6	Y6	Z6	X7	Y7	Z7	X8	Y8	Z8	X9	Y9	Z9	X10	Y10	Z10	X11	Y11	Z11	X12	Y12	Z12	X13	Y13	Z13	X14	Y14	Z14	X15	Y15	Z15	X16	Y16	Z16	X17	Y17	Z17	X18	Y18	Z18
5717	22.86400	1089.03345	1426.84436	132.84042	1144.87000	1358.32263	298.77829	1103.18225	1020.73694	305.86743	1207.57629	1294.81152	128.61777	1168.59143	1141.61963	341.23087	1153.57690	791.28485	380.50494	1180.93176	1233.22803	-126.73716	1215.43713	1169.90417	-148.85202	1268.18982	1160.84509	-62.74477	1290.58691	1186.79944	38.88997	1360.53918	1181.80066	96.87790	1145.28821	1115.86755	-101.86349	1179.08374	1050.51904	352.86139	1114.20728	1404.79810	-16.58715	1193.42371	914.48468	340.32642	1202.58545	788.30383	322.54810	1232.76086	728.72424	362.31235	1296.64001	1109.94385	48.52718
5718	22.86800	1089.05286	1426.84875	132.83061	1144.91528	1358.35168	298.74521	1103.18738	1020.77649	305.86685	1207.61304	1294.82483	128.59767	1168.62988	1141.65479	341.21677	1153.55408	791.31293	380.52588	1181.23853	1233.21069	-126.61126	1215.88538	1170.08801	-148.71524	1268.39246	1161.92627	-62.39448	1290.31714	1188.70190	39.11452	1360.17529	1184.41992	97.24969	1145.87402	1115.74390	-101.39849	1179.10266	1050.54431	352.85358	1114.17542	1404.75989	-16.61566	1195.03259	913.86603	341.26483	1202.56616	788.33069	322.57446	1232.73462	728.75647	362.34271	1296.69385	1111.98181	49.33293
5719	22.87200	1089.06750	1426.85205	132.80850	1144.96948	1358.37598	298.70795	1103.19958	1020.80511	305.87244	1207.64575	1294.84180	128.58238	1168.65417	1141.68066	341.20221	1153.53125	791.34070	380.54916	1181.53577	1233.18896	-126.48503	1216.32532	1170.26270	-148.55516	1268.57764	1162.98315	-62.03719	1290.05688	1190.54895	39.35962	1359.81848	1186.96008	97.61185	1146.44177	1115.64380	-101.00459	1179.11707	1050.56934	352.84442	1114.13281	1404.72156	-16.64062	1195.52124	913.93158	341.61813	1202.53430	788.35602	322.60495	1232.70557	728.79272	362.37753	1296.71191	1113.96667	50.11567
5720	22.87600	1089.08179	1426.85510	132.78358	1145.02637	1358.39978	298.67603	1103.20398	1020.83636	305.88776	1207.67163	1294.86230	128.55797	1168.68201	1141.70642	341.18777	1153.51111	791.36987	380.57718	1181.81750	1233.16235	-126.35500	1216.74963	1170.43225	-148.39143	1268.74585	1163.98462	-61.68839	1289.79614	1192.33301	39.58034	1359.44800	1189.40613	97.96800	1146.90918	1115.58337	-100.61249	1179.13684	1050.59009	352.83710	1114.08252	1404.68347	-16.66568	1195.68945	914.09064	341.77231	1202.49487	788.37549	322.62601	1232.67737	728.82294	362.40659	1296.74414	1115.88538	50.84948
5721	22.88000	1089.09583	1426.85522	132.75919	1145.08301	1358.42041	298.64499	1103.20020	1020.87024	305.91583	1207.69812	1294.88147	128.53157	1168.71570	1141.73096	341.17163	1153.49609	791.40179	380.61929	1182.09009	1233.13123	-126.22364	1217.16223	1170.59583	-148.23859	1268.89368	1164.93799	-61.31293	1289.54895	1194.06323	39.73919	1359.09399	1191.77856	98.31105	1147.36731	1115.49255	-100.14790	1179.15088	1050.61536	352.83209	1114.02588	1404.63733	-16.69053	1195.74329	914.18823	341.84039	1202.46057	788.39752	322.65210	1232.64783	728.83795	362.43793	1296.72827	1117.75708	51.58553
5722	22.88400	1089.10010	1426.85193	132.73773	1145.13782	1358.43823	298.61288	1103.20544	1020.89355	305.94046	1207.72351	1294.88989	128.50603	1168.74048	1141.74365	341.15488	1153.47314	791.44128	380.65952	1182.35645	1233.09387	-126.08811	1217.56641	1170.77209	-148.10551	1269.03027	1165.86328	-60.91609	1289.96448	1195.44775	40.59815	1358.74194	1194.06372	98.62656	1147.87183	1115.20557	-99.50705	1179.17090	1050.64209	352.82663	1113.96558	1404.58923	-16.71508	1195.75769	914.23627	341.85492	1202.42603	788.40967	322.66861	1232.61963	728.85553	362.46677	1296.67346	1119.57959	52.33555
5723	22.88800	1089.10181	1426.84607	132.72234	1145.19336	1358.45691	298.58118	1103.21008	1020.91455	305.97083	1207.74548	1294.89612	128.47731	1168.76965	1141.76343	341.13751	1153.46240	791.46552	380.69803	1182.60986	1233.05151	-125.94778	1217.96130	1170.97827	-148.01241	1270.35364	1167.61377	-61.89836	1291.21912	1196.46729	42.24706	1358.38831	1196.26611	98.91706	1148.25830	1114.84094	-98.75726	1179.19714	1050.65735	352.82495	1113.90894	1404.54028	-16.73863	1195.75073	914.25903	341.85794	1202.39307	788.41699	322.68109	1232.59204	728.87836	362.49561	1296.59875	1121.34021	53.07122
5724	22.89200	1089.10132	1426.83240	132.70419	1145.24487	1358.47644	298.55359	1103.21179	1020.94080	306.00552	1207.76416	1294.90283	128.44817	1168.79810	1141.78308	341.11862	1153.45654	791.49243	380.73492	1182.84265	1233.00854	-125.80639	1217.94226	1171.71094	-148.23901	1273.16333	1170.37903	-64.57440	1290.95190	1198.50635	42.27000	1358.05005	1198.37903	99.19953	1148.50244	1114.93518	-98.41085	1179.21655	1050.68005	352.82816	1113.85474	1404.48633	-16.76840	1195.74524	914.27625	341.85782	1202.35999	788.41803	322.69281	1232.56738	728.89655	362.52765	1296.53052	1123.01709	53.77311
